<!-- Generated by IcoMoon.io -->
<svg version="1.1" xmlns="http://www.w3.org/2000/svg" width="64" height="64" viewBox="0 0 18 18">
<path fill="url(#main-gradient)" d="M16 3h-14c-0.552 0-1 0.448-1 1v10c0 0.552 0.448 1 1 1h14c0.552 0 1-0.448 1-1v-10c0-0.552-0.448-1-1-1zM14.618 5l-5.618 3.831-5.618-3.831h11.236zM15 12.5c0 0.276-0.224 0.5-0.5 0.5h-11c-0.276 0-0.5-0.224-0.5-0.5v-5.363l5.497 3.723c0.155 0.093 0.329 0.139 0.503 0.139s0.348-0.046 0.503-0.139l5.497-3.723v5.363z"></path>
<linearGradient id="main-gradient">
    <stop offset="5%" stop-color="#FE6611" />
    <stop offset="95%" stop-color="#F333BD" />
</linearGradient>
</svg>
